<svg width="789" height="326" viewBox="0 0 789 326" fill="none" xmlns="http://www.w3.org/2000/svg">
<path d="M763.004 326H25.8131C18.9694 325.994 12.4082 323.821 7.56898 319.959C2.72976 316.097 0.00770424 310.86 0 305.398V20.6022C0.00770424 15.1401 2.72976 9.90338 7.56898 6.04104C12.4082 2.17871 18.9694 0.006149 25.8131 0H763.004C769.848 0.006149 776.409 2.17871 781.249 6.04104C786.088 9.90338 788.81 15.1401 788.818 20.6022V305.398C788.81 310.86 786.088 316.097 781.249 319.959C776.409 323.821 769.848 325.994 763.004 326ZM25.8131 2.42379C19.7745 2.42924 13.9853 4.34621 9.71538 7.75415C5.44548 11.1621 3.04367 15.7827 3.03683 20.6022V305.398C3.04367 310.217 5.44548 314.838 9.71538 318.246C13.9853 321.654 19.7745 323.571 25.8131 323.576H763.004C769.043 323.571 774.832 321.654 779.102 318.246C783.372 314.838 785.774 310.217 785.781 305.398V20.6022C785.774 15.7827 783.372 11.1621 779.102 7.75415C774.832 4.34621 769.043 2.42924 763.004 2.42379H25.8131Z" fill="#FAFF00"/>
<path d="M688.013 56.2069H85.0013C84.461 56.2069 83.9428 56.0292 83.5608 55.713C83.1787 55.3968 82.9641 54.9679 82.9641 54.5207C82.9641 54.0735 83.1787 53.6446 83.5608 53.3284C83.9428 53.0122 84.461 52.8345 85.0013 52.8345H688.013C688.554 52.8345 689.072 53.0122 689.454 53.3284C689.836 53.6446 690.051 54.0735 690.051 54.5207C690.051 54.9679 689.836 55.3968 689.454 55.713C689.072 56.0292 688.554 56.2069 688.013 56.2069Z" fill="#CCCCCC"/>
<path d="M688.013 107.917H85.0013C84.461 107.917 83.9428 107.74 83.5608 107.423C83.1787 107.107 82.9641 106.678 82.9641 106.231C82.9641 105.784 83.1787 105.355 83.5608 105.039C83.9428 104.722 84.461 104.545 85.0013 104.545H688.013C688.554 104.545 689.072 104.722 689.454 105.039C689.836 105.355 690.051 105.784 690.051 106.231C690.051 106.678 689.836 107.107 689.454 107.423C689.072 107.74 688.554 107.917 688.013 107.917Z" fill="#CCCCCC"/>
<path d="M688.013 159.628H85.0013C84.461 159.628 83.9428 159.45 83.5608 159.134C83.1787 158.817 82.9641 158.389 82.9641 157.941C82.9641 157.494 83.1787 157.065 83.5608 156.749C83.9428 156.433 84.461 156.255 85.0013 156.255H688.013C688.554 156.255 689.072 156.433 689.454 156.749C689.836 157.065 690.051 157.494 690.051 157.941C690.051 158.389 689.836 158.817 689.454 159.134C689.072 159.45 688.554 159.628 688.013 159.628Z" fill="#CCCCCC"/>
<path d="M688.013 211.338H85.0013C84.461 211.338 83.9428 211.16 83.5608 210.844C83.1787 210.528 82.9641 210.099 82.9641 209.652C82.9641 209.205 83.1787 208.776 83.5608 208.459C83.9428 208.143 84.461 207.966 85.0013 207.966H688.013C688.554 207.966 689.072 208.143 689.454 208.459C689.836 208.776 690.051 209.205 690.051 209.652C690.051 210.099 689.836 210.528 689.454 210.844C689.072 211.16 688.554 211.338 688.013 211.338Z" fill="#CCCCCC"/>
<path d="M305.891 262.622H259.634C257.52 262.62 255.493 261.82 253.998 260.398C252.503 258.977 251.662 257.049 251.659 255.039V214.089C251.662 212.079 252.503 210.151 253.998 208.729C255.493 207.308 257.52 206.508 259.634 206.506H305.891C308.006 206.508 310.033 207.308 311.528 208.729C313.023 210.151 313.864 212.079 313.867 214.089V255.039C313.864 257.049 313.023 258.977 311.528 260.398C310.033 261.82 308.006 262.62 305.891 262.622Z" fill="#FD1C52"/>
<path d="M409.571 262.622H363.314C361.199 262.62 359.172 261.82 357.677 260.398C356.182 258.977 355.341 257.049 355.339 255.039V162.523C355.341 160.512 356.182 158.585 357.677 157.163C359.172 155.741 361.199 154.942 363.314 154.939H409.571C411.685 154.942 413.712 155.741 415.208 157.163C416.703 158.585 417.544 160.512 417.546 162.523V255.039C417.544 257.049 416.703 258.977 415.208 260.398C413.712 261.82 411.685 262.62 409.571 262.622Z" fill="#FD7900"/>
<path d="M514.845 262.622H468.588C466.474 262.62 464.447 261.82 462.952 260.398C461.456 258.977 460.615 257.049 460.613 255.039V110.956C460.615 108.946 461.456 107.018 462.952 105.597C464.447 104.175 466.474 103.375 468.588 103.373H514.845C516.96 103.375 518.987 104.175 520.482 105.597C521.977 107.018 522.818 108.946 522.821 110.956V255.039C522.818 257.049 521.977 258.977 520.482 260.398C518.987 261.82 516.96 262.62 514.845 262.622Z" fill="#2CEAF7"/>
<path d="M623.31 262.622H577.053C574.938 262.62 572.911 261.82 571.416 260.398C569.921 258.977 569.08 257.049 569.078 255.039V60.9067C569.08 58.8962 569.921 56.9687 571.416 55.5471C572.911 54.1254 574.938 53.3257 577.053 53.3234H623.31C625.424 53.3257 627.452 54.1254 628.947 55.5471C630.442 56.9687 631.283 58.8962 631.285 60.9067V255.039C631.283 257.049 630.442 258.977 628.947 260.398C627.452 261.82 625.424 262.62 623.31 262.622Z" fill="#801FFB"/>
<path d="M688.013 263.048H85.0013C84.461 263.048 83.9428 262.871 83.5608 262.554C83.1787 262.238 82.9641 261.809 82.9641 261.362C82.9641 260.915 83.1787 260.486 83.5608 260.17C83.9428 259.854 84.461 259.676 85.0013 259.676H688.013C688.554 259.676 689.072 259.854 689.454 260.17C689.836 260.486 690.051 260.915 690.051 261.362C690.051 261.809 689.836 262.238 689.454 262.554C689.072 262.871 688.554 263.048 688.013 263.048Z" fill="#CDCCD6"/>
</svg>
