<svg width="360" height="653" viewBox="0 0 360 653" fill="none" xmlns="http://www.w3.org/2000/svg">
<path d="M296.038 161.504C313.527 161.504 327.705 146.24 327.705 127.411C327.705 108.581 313.527 93.3174 296.038 93.3174C278.549 93.3174 264.371 108.581 264.371 127.411C264.371 146.24 278.549 161.504 296.038 161.504Z" fill="#FFB8B8"/>
<path d="M178.199 311.158C177.405 309.97 176.736 308.703 176.2 307.374L176.2 307.374C176.102 307.131 176.008 306.886 175.917 306.639L67.2259 8.8185C66.0457 5.58353 66.6571 2.496 68.649 1.63649C69.2637 1.42549 69.9169 1.38171 70.5366 1.50993C71.1563 1.63816 71.7184 1.93344 72.1609 2.36322C73.3503 3.35382 74.2537 4.63114 74.7903 6.08091L190.694 301.354C193.305 308.002 192.24 314.552 188.271 316.265C186.194 317.161 183.733 316.59 181.341 314.658C180.123 313.651 179.065 312.472 178.199 311.158Z" fill="#FBFBFF"/>
<path d="M299.26 140.22C299.39 145.039 302.498 147.828 306.313 150.352C310.129 152.876 314.589 153.971 318.959 155.027C319.546 155.362 320.203 155.53 320.867 155.512C321.532 155.494 322.18 155.293 322.751 154.927C323.322 154.56 323.796 154.042 324.126 153.421C324.457 152.801 324.633 152.099 324.638 151.384L328.646 134.972C330.064 129.729 331.096 124.374 331.732 118.957C332.697 108.534 330.402 97.3209 323.645 89.7845C316.887 82.2481 305.168 79.5709 297.07 85.3776C287.46 72.1632 243.533 101.359 254.368 110.548C256.296 112.183 259.243 110.114 261.69 109.913C264.137 109.713 266.879 110.176 268.433 112.221C270.464 114.892 269.579 118.87 270.416 122.202C270.762 123.375 271.32 124.462 272.059 125.401C272.797 126.34 273.7 127.112 274.717 127.673C275.734 128.234 276.844 128.573 277.983 128.67C279.122 128.767 280.268 128.62 281.354 128.238C283.377 127.165 285.28 125.848 287.027 124.312C288.904 122.966 291.275 121.972 293.388 122.82C296.173 123.939 297.162 127.61 297.414 130.799C297.838 133.979 298.455 137.126 299.26 140.22Z" fill="#3128DD"/>
<path d="M154.364 252.077C155.999 253.111 157.823 253.747 159.71 253.94C161.597 254.132 163.5 253.877 165.286 253.192C167.071 252.507 168.696 251.409 170.044 249.975C171.393 248.542 172.433 246.807 173.092 244.893L219.156 245.927L206.394 224.117L164.608 226.479C161.549 225.501 158.263 225.765 155.372 227.221C152.482 228.678 150.188 231.225 148.925 234.38C147.663 237.535 147.519 241.079 148.522 244.341C149.524 247.603 151.603 250.355 154.364 252.077V252.077Z" fill="#FFB8B8"/>
<path d="M174.373 244.155L174.133 228.954C174.115 227.385 174.644 225.866 175.614 224.696C176.585 223.526 177.927 222.789 179.377 222.631L262.153 214.031L331.12 189.686C333.202 188.951 335.398 188.669 337.582 188.856C339.765 189.043 341.893 189.696 343.84 190.777C345.787 191.857 347.516 193.343 348.925 195.149C350.334 196.955 351.395 199.044 352.048 201.296C352.7 203.547 352.93 205.916 352.724 208.264C352.519 210.612 351.881 212.893 350.85 214.973C349.818 217.054 348.413 218.893 346.715 220.383C345.017 221.874 343.061 222.986 340.961 223.656L264.624 247.989L180.32 250.294C179.045 250.328 177.796 249.909 176.764 249.103C175.733 248.297 174.976 247.149 174.61 245.834C174.461 245.288 174.381 244.724 174.373 244.155Z" fill="#6E64E4"/>
<path d="M296.869 636.044L281.062 636.043L273.542 570.402L296.872 570.404L296.869 636.044Z" fill="#FFB8B8"/>
<path d="M300.9 652.54L249.933 652.538V651.844C249.933 649.039 250.446 646.262 251.443 643.671C252.44 641.079 253.901 638.725 255.743 636.742C257.585 634.758 259.772 633.185 262.179 632.112C264.586 631.039 267.166 630.486 269.771 630.486H269.772L300.901 630.488L300.9 652.54Z" fill="#12F45F"/>
<path d="M250.558 386.478C252.036 385.2 253.236 383.589 254.073 381.758C254.91 379.928 255.364 377.921 255.403 375.881C255.442 373.841 255.065 371.816 254.299 369.95C253.533 368.084 252.395 366.421 250.968 365.079L268.217 319.083L244.748 324.185L231.966 367.081C230.031 369.813 229.094 373.214 229.332 376.64C229.571 380.067 230.968 383.279 233.26 385.67C235.552 388.061 238.578 389.464 241.766 389.613C244.955 389.762 248.083 388.646 250.558 386.478V386.478Z" fill="#FFB8B8"/>
<path d="M343.285 636.044L327.478 636.043L319.958 570.402L343.287 570.404L343.285 636.044Z" fill="#FFB8B8"/>
<path d="M347.316 652.54L296.348 652.538V651.844C296.348 649.039 296.861 646.262 297.858 643.671C298.855 641.079 300.317 638.725 302.159 636.742C304.001 634.758 306.188 633.185 308.595 632.112C311.002 631.039 313.581 630.486 316.187 630.486H316.188L347.317 630.488L347.316 652.54Z" fill="#48EF81"/>
<path d="M353.893 370.767L350.119 611.872C350.107 612.635 349.949 613.388 349.654 614.083C349.36 614.777 348.936 615.399 348.408 615.909C347.88 616.42 347.26 616.807 346.587 617.048C345.914 617.288 345.202 617.377 344.495 617.308L325.998 615.497C324.785 615.379 323.65 614.801 322.794 613.868C321.939 612.934 321.418 611.704 321.323 610.397L310.495 460.003C310.469 459.649 310.319 459.32 310.075 459.082C309.832 458.844 309.513 458.715 309.184 458.722C308.855 458.729 308.54 458.871 308.306 459.12C308.071 459.368 307.933 459.703 307.921 460.057L302.508 613.895C302.458 615.33 301.893 616.688 300.932 617.684C299.971 618.68 298.689 619.237 297.355 619.237H277.517C276.204 619.237 274.94 618.697 273.984 617.729C273.027 616.76 272.45 615.435 272.37 614.023L258.483 369.379L341 347.169L353.893 370.767Z" fill="white"/>
<path d="M255.658 377.939C255.109 377.369 254.671 376.687 254.369 375.932C254.067 375.178 253.907 374.367 253.898 373.546L251.762 209.136C251.634 200.772 253.971 192.58 258.437 185.736C262.904 178.892 269.271 173.749 276.623 171.044C279.59 156.553 295.38 154.738 304.585 154.955C306.882 155.008 309.134 155.657 311.149 156.847C313.164 158.036 314.883 159.732 316.16 161.789L322.759 172.445L337.302 181.623C344.033 185.853 349.342 192.275 352.464 199.963C355.585 207.651 356.358 216.208 354.67 224.4L352.431 235.365C344.546 274.175 345.296 314.443 354.62 352.882L359.126 371.377C359.36 372.34 359.378 373.35 359.176 374.322C358.975 375.294 358.561 376.2 357.968 376.964C357.375 377.729 356.621 378.33 355.769 378.717C354.917 379.104 353.991 379.266 353.068 379.189L347.836 378.755C346.477 378.644 345.198 378.022 344.224 376.997C343.249 375.972 342.642 374.61 342.507 373.15L341.641 363.826C341.625 363.655 341.551 363.496 341.432 363.381C341.314 363.265 341.16 363.201 341 363.201C340.84 363.201 340.686 363.265 340.567 363.381C340.449 363.496 340.374 363.655 340.358 363.826L339.52 372.853C339.379 374.378 338.721 375.794 337.673 376.831C336.625 377.868 335.259 378.454 333.836 378.477L259.789 379.704C259.758 379.704 259.728 379.706 259.697 379.706C258.188 379.709 256.737 379.074 255.658 377.939Z" fill="#6E64E4"/>
<path opacity="0.2" d="M289.123 221.305L283.965 289.322L256.889 360.115L296.859 290.71L289.123 221.305Z" fill="black"/>
<path d="M249.302 366.192L236.017 361.037C234.649 360.498 233.517 359.427 232.846 358.035C232.174 356.642 232.011 355.03 232.388 353.514L254.303 267.147L257.644 189.091C257.745 186.735 258.28 184.424 259.217 182.292C260.155 180.161 261.477 178.251 263.106 176.675C264.736 175.098 266.64 173.886 268.708 173.109C270.776 172.332 272.968 172.005 275.154 172.148C277.341 172.29 279.48 172.9 281.446 173.94C283.412 174.981 285.166 176.432 286.606 178.209C288.047 179.986 289.145 182.053 289.837 184.291C290.528 186.529 290.8 188.892 290.635 191.244L284.668 276.714L256.744 362.386C256.321 363.68 255.514 364.789 254.448 365.541C253.382 366.293 252.116 366.647 250.844 366.549C250.318 366.506 249.799 366.385 249.302 366.192Z" fill="#6E64E4"/>
</svg>
