<svg width="465" height="571" viewBox="0 0 465 571" fill="none" xmlns="http://www.w3.org/2000/svg">
<path d="M401.038 79.5038C418.527 79.5038 432.705 64.2397 432.705 45.4106C432.705 26.5814 418.527 11.3174 401.038 11.3174C383.549 11.3174 369.371 26.5814 369.371 45.4106C369.371 64.2397 383.549 79.5038 401.038 79.5038Z" fill="#FFB8B8"/>
<path d="M326.252 181.028C324.786 181.024 323.324 180.866 321.887 180.557H321.886C321.624 180.5 321.361 180.44 321.099 180.374L5.3466 101.225C1.91711 100.365 -0.361281 98.0425 0.0472932 95.8215C0.219567 95.1676 0.556216 94.5776 1.02011 94.1165C1.48401 93.6555 2.05716 93.3413 2.67635 93.2086C4.20052 92.7564 5.80504 92.7179 7.34638 93.0968L325.059 164.531C332.213 166.139 337.179 170.866 336.365 175.291C335.939 177.607 334.045 179.402 331.031 180.347C329.475 180.814 327.867 181.043 326.252 181.028Z" fill="#FBFBFF"/>
<path d="M404.26 58.22C404.39 63.0394 407.498 65.8276 411.313 68.352C415.129 70.8764 419.589 71.971 423.959 73.0268C424.546 73.3624 425.203 73.5295 425.867 73.5119C426.532 73.4944 427.18 73.2928 427.751 72.9266C428.322 72.5605 428.796 72.042 429.126 71.4214C429.457 70.8008 429.633 70.099 429.638 69.3836L433.646 52.9718C435.064 47.7292 436.096 42.3744 436.732 36.9572C437.697 26.5338 435.402 15.3209 428.645 7.78447C421.887 0.248084 410.168 -2.42917 402.07 3.37756C392.46 -9.83685 348.533 19.3588 359.368 28.5477C361.296 30.1825 364.243 28.114 366.69 27.9135C369.137 27.713 371.879 28.1763 373.433 30.2208C375.464 32.8917 374.579 36.8705 375.416 40.2024C375.762 41.3748 376.32 42.4618 377.059 43.4007C377.797 44.3397 378.7 45.1119 379.717 45.673C380.734 46.2341 381.844 46.573 382.983 46.67C384.122 46.767 385.268 46.6203 386.354 46.2383C388.377 45.1651 390.28 43.8479 392.027 42.312C393.904 40.9661 396.275 39.9716 398.388 40.8204C401.173 41.9394 402.162 45.61 402.414 48.7986C402.838 51.9789 403.455 55.1261 404.26 58.22Z" fill="#3128DD"/>
<path d="M259.365 170.077C260.999 171.111 262.823 171.747 264.71 171.94C266.597 172.132 268.501 171.877 270.286 171.192C272.072 170.507 273.696 169.409 275.044 167.976C276.393 166.542 277.433 164.807 278.092 162.893L324.156 163.928L311.394 142.118L269.608 144.479C266.549 143.501 263.263 143.765 260.372 145.221C257.482 146.678 255.188 149.225 253.925 152.38C252.663 155.535 252.519 159.079 253.522 162.341C254.524 165.603 256.603 168.355 259.365 170.077V170.077Z" fill="#FFB8B8"/>
<path d="M279.373 162.155L279.133 146.954C279.115 145.386 279.644 143.866 280.615 142.696C281.585 141.526 282.927 140.789 284.377 140.631L367.153 132.031L436.12 107.686C438.202 106.951 440.398 106.669 442.582 106.856C444.765 107.044 446.893 107.696 448.84 108.777C450.787 109.857 452.516 111.343 453.925 113.149C455.334 114.955 456.395 117.044 457.048 119.296C457.7 121.547 457.93 123.916 457.724 126.264C457.519 128.612 456.882 130.893 455.85 132.973C454.818 135.054 453.413 136.893 451.715 138.384C450.018 139.874 448.062 140.986 445.961 141.656L369.625 165.989L285.32 168.294C284.045 168.328 282.796 167.909 281.765 167.103C280.733 166.297 279.976 165.149 279.61 163.834C279.461 163.289 279.381 162.724 279.373 162.155Z" fill="#6E64E4"/>
<path d="M401.869 554.044L386.062 554.043L378.542 488.402L401.871 488.404L401.869 554.044Z" fill="#FFB8B8"/>
<path d="M405.9 570.54L354.933 570.538V569.844C354.933 567.039 355.446 564.262 356.443 561.671C357.44 559.079 358.901 556.725 360.743 554.742C362.585 552.758 364.772 551.185 367.179 550.112C369.586 549.039 372.166 548.486 374.771 548.486H374.772L405.901 548.488L405.9 570.54Z" fill="#12F45F"/>
<path d="M355.558 304.478C357.036 303.2 358.236 301.589 359.073 299.758C359.91 297.928 360.364 295.921 360.403 293.881C360.442 291.841 360.065 289.816 359.299 287.95C358.533 286.084 357.396 284.421 355.968 283.079L373.217 237.083L349.748 242.185L336.966 285.081C335.031 287.813 334.094 291.214 334.332 294.64C334.571 298.067 335.968 301.279 338.26 303.67C340.552 306.061 343.578 307.464 346.767 307.613C349.955 307.762 353.083 306.646 355.558 304.478V304.478Z" fill="#FFB8B8"/>
<path d="M448.285 554.044L432.477 554.043L424.958 488.402L448.287 488.404L448.285 554.044Z" fill="#FFB8B8"/>
<path d="M452.316 570.54L401.348 570.538V569.844C401.348 567.039 401.861 564.262 402.858 561.671C403.855 559.079 405.317 556.725 407.159 554.742C409.001 552.758 411.188 551.185 413.595 550.112C416.002 549.039 418.581 548.486 421.186 548.486H421.188L452.317 548.488L452.316 570.54Z" fill="#48EF81"/>
<path d="M458.893 288.767L455.119 529.872C455.107 530.635 454.949 531.388 454.654 532.083C454.36 532.777 453.935 533.399 453.408 533.909C452.88 534.42 452.26 534.807 451.587 535.048C450.914 535.288 450.202 535.377 449.495 535.308L430.998 533.497C429.785 533.379 428.65 532.801 427.794 531.868C426.939 530.934 426.417 529.704 426.323 528.397L415.494 378.003C415.469 377.649 415.319 377.32 415.075 377.082C414.832 376.844 414.513 376.715 414.183 376.722C413.854 376.729 413.54 376.871 413.306 377.12C413.071 377.368 412.933 377.703 412.921 378.057L407.508 531.895C407.458 533.33 406.892 534.688 405.932 535.684C404.971 536.68 403.688 537.237 402.354 537.237H382.517C381.204 537.237 379.94 536.697 378.984 535.729C378.027 534.76 377.45 533.435 377.37 532.023L363.483 287.379L446 265.169L458.893 288.767Z" fill="white"/>
<path d="M360.658 295.939C360.109 295.369 359.671 294.687 359.369 293.932C359.067 293.178 358.907 292.367 358.898 291.546L356.762 127.136C356.634 118.772 358.971 110.58 363.437 103.736C367.904 96.8925 374.271 91.7488 381.623 89.0444C384.59 74.5534 400.38 72.7383 409.585 72.9552C411.882 73.0084 414.134 73.6573 416.149 74.8469C418.164 76.0364 419.883 77.7316 421.16 79.7886L427.758 90.4447L442.302 99.6232C449.033 103.853 454.342 110.275 457.464 117.963C460.585 125.651 461.358 134.208 459.67 142.4L457.431 153.365C449.546 192.175 450.296 232.443 459.62 270.882L464.126 289.377C464.36 290.34 464.378 291.35 464.176 292.322C463.975 293.294 463.561 294.2 462.968 294.964C462.375 295.729 461.621 296.33 460.769 296.717C459.917 297.104 458.991 297.266 458.068 297.189L452.836 296.755C451.477 296.644 450.198 296.022 449.224 294.997C448.249 293.972 447.642 292.61 447.507 291.15L446.641 281.826C446.625 281.655 446.551 281.496 446.432 281.381C446.314 281.265 446.16 281.201 446 281.201C445.84 281.201 445.686 281.265 445.567 281.381C445.449 281.496 445.374 281.655 445.358 281.826L444.52 290.853C444.379 292.378 443.721 293.794 442.673 294.831C441.625 295.868 440.259 296.454 438.836 296.477L364.789 297.704C364.758 297.704 364.728 297.706 364.697 297.706C363.188 297.709 361.737 297.074 360.658 295.939Z" fill="#6E64E4"/>
<path opacity="0.2" d="M394.123 139.305L388.965 207.322L361.889 278.115L401.859 208.71L394.123 139.305Z" fill="black"/>
<path d="M354.302 284.192L341.017 279.037C339.649 278.498 338.517 277.427 337.846 276.035C337.174 274.642 337.011 273.03 337.388 271.514L359.303 185.147L362.644 107.091C362.745 104.735 363.28 102.424 364.217 100.293C365.155 98.161 366.477 96.2514 368.106 94.6748C369.736 93.0983 371.64 91.8861 373.708 91.1089C375.777 90.3318 377.968 90.0051 380.154 90.1478C382.341 90.2905 384.48 90.8998 386.446 91.9403C388.412 92.9808 390.166 94.4317 391.606 96.2087C393.047 97.9856 394.145 100.053 394.837 102.291C395.528 104.529 395.8 106.893 395.635 109.244L389.668 194.714L361.744 280.386C361.321 281.68 360.514 282.789 359.448 283.541C358.382 284.293 357.116 284.647 355.844 284.549C355.318 284.506 354.799 284.386 354.302 284.192Z" fill="#6E64E4"/>
</svg>
